<svg width="160" height="24" viewBox="0 0 160 24" fill="none" xmlns="http://www.w3.org/2000/svg">
<path d="M3.92937 19.0628C3.86191 19.6024 3.59209 20.0746 3.14239 20.4569C2.28795 21.1764 1.02879 21.1764 0.399206 20.4344C0.0844145 20.0746 -0.050485 19.58 0.0169702 19.0628L1.99565 5.00962C2.06311 4.49247 2.33293 4.02027 2.73766 3.63803C3.59209 2.87353 4.87375 2.87354 5.52581 3.61555C5.84061 3.99779 5.97551 4.46998 5.90805 5.00962L3.92937 19.0628Z" fill="white"/>
<path d="M14.6097 19.0628C14.5423 19.6024 14.2724 20.0746 13.8227 20.4569C12.9683 21.1764 11.7091 21.1764 11.0795 20.4344C10.7648 20.0746 10.6299 19.58 10.6973 19.0628L12.676 5.00962C12.7435 4.49247 13.0133 4.02027 13.418 3.63803C14.2724 2.87353 15.5541 2.87354 16.2062 3.61555C16.5209 3.99779 16.6558 4.46998 16.5884 5.00962L14.6097 19.0628Z" fill="white"/>
<path d="M9.05593 10.0688C9.59558 10.0688 10.0453 10.2712 10.3601 10.6534C10.9672 11.3954 10.7873 12.6771 9.95534 13.3966C9.52812 13.7564 9.03345 13.9587 8.49381 13.9587H2.67018C2.15302 13.9587 1.70332 13.7789 1.36605 13.4191C0.71398 12.6771 0.89385 11.3954 1.74828 10.631C2.1755 10.2487 2.69266 10.0463 3.20981 10.0463H9.05593V10.0688Z" fill="white"/>
<path d="M28.011 20.8841H18.882C18.3424 20.8841 17.8927 20.6817 17.5779 20.322C17.2631 19.9622 17.1282 19.4675 17.1956 18.9504L19.1293 5.14453C19.1968 4.62738 19.4666 4.13271 19.8714 3.77295C20.2986 3.3907 20.7932 3.18833 21.3329 3.18833H30.4618C30.979 3.18833 31.4062 3.39069 31.721 3.75045C32.0358 4.11022 32.1482 4.5824 32.0807 5.09956C32.0133 5.61672 31.7435 6.0889 31.3162 6.44866C30.9115 6.78594 30.4169 6.98831 29.9222 6.98831H22.7719L22.3222 10.1812H28.663C29.1802 10.1812 29.6074 10.3611 29.9222 10.7208C30.237 11.0806 30.3719 11.5528 30.2819 12.0699C30.2145 12.5871 29.9447 13.0593 29.5174 13.419C29.1127 13.7563 28.6181 13.9362 28.1234 13.9362H21.7826L21.3329 17.1516H28.4831C29.0003 17.1516 29.4275 17.3539 29.7423 17.7137C30.0571 18.0735 30.1695 18.5456 30.1021 19.0628C30.0346 19.58 29.7648 20.0521 29.3376 20.4119C29.0003 20.7042 28.5056 20.8841 28.011 20.8841Z" fill="white"/>
<path d="M45.2568 20.9966C44.6273 20.9966 44.1101 20.7043 43.8178 20.1871L40.4226 15.0156L35.6108 20.2321C35.0037 20.8617 34.3966 20.9966 33.9918 20.9966C33.4972 20.9966 33.0699 20.7942 32.7551 20.4345C32.4404 20.0747 32.3279 19.625 32.3954 19.1078C32.4628 18.6581 32.6427 18.2534 32.9575 17.9161L38.6013 12.0025L34.6889 6.15642C34.464 5.77418 34.3966 5.39194 34.4415 4.94224C34.509 4.4026 34.7788 3.9304 35.1835 3.57064C35.8356 3.00851 36.78 2.85112 37.477 3.23336C37.7468 3.36827 37.9492 3.57064 38.0841 3.79549L41.4344 8.96706L46.2462 3.75052C46.8983 2.94105 48.3823 2.78366 49.0793 3.57064C49.4166 3.9304 49.529 4.40259 49.4616 4.91974C49.3941 5.32448 49.2367 5.70673 48.9444 6.02152L43.2782 11.9801L47.2355 17.8712C47.4604 18.1635 47.5503 18.5682 47.4829 19.0404C47.4154 19.5575 47.1456 20.0297 46.7409 20.412C46.3137 20.8167 45.819 20.9966 45.2568 20.9966Z" fill="white"/>
<path d="M63.1101 20.9966C62.7279 20.9966 62.3681 20.8842 62.0758 20.6818C61.7835 20.4569 61.5811 20.1871 61.4687 19.8273L60.6368 16.8144H54.1161L52.4522 19.8049C52.2273 20.1871 51.935 20.4794 51.5978 20.6818C50.7208 21.1989 49.6865 21.064 49.1469 20.4344C48.8546 20.0747 48.7197 19.6025 48.8096 19.0629C48.8546 18.8155 48.9445 18.5457 49.1019 18.2534L56.8368 4.53749C57.0841 4.11027 57.3989 3.773 57.7587 3.50318C58.1859 3.18839 58.6806 3.05348 59.1977 3.05348H59.4226C59.9622 3.05348 60.3894 3.21087 60.7267 3.50318C61.019 3.773 61.2439 4.11028 61.3563 4.51501L65.2462 18.2309C65.3361 18.5232 65.3586 18.793 65.3137 19.0404C65.2462 19.5575 64.9764 20.0297 64.5941 20.412C64.1894 20.8167 63.6723 20.9966 63.1101 20.9966ZM56.2072 13.1043H59.6025L58.4782 9.01203L56.2072 13.1043Z" fill="white"/>
<path d="M80.8057 20.9965C80.3111 20.9965 79.8389 20.8392 79.4791 20.5244C79.1194 20.2096 78.8945 19.8048 78.8046 19.3102L77.2531 10.496L73.2283 19.3327C73.0259 19.8048 72.6661 20.2096 72.2164 20.5244C71.317 21.1539 70.1703 21.1315 69.4733 20.5468C69.136 20.2545 68.9111 19.8723 68.7987 19.3551L66.2579 5.61676C66.2129 5.34693 66.2129 5.12208 66.2354 4.9422C66.2804 4.44753 66.5277 3.95285 66.9549 3.5706C67.6969 2.91854 68.9111 2.8286 69.5857 3.45818C69.8555 3.728 70.0354 4.06528 70.1253 4.47001L71.7218 14.1611L76.0389 4.51498C76.2188 4.08776 76.5561 3.70551 76.9608 3.41321C77.7927 2.85108 78.8495 2.87356 79.5241 3.41321C79.8614 3.68303 80.0862 4.08776 80.1537 4.51498L81.7726 14.1611L86.0897 4.47001C86.2696 4.04279 86.5619 3.70552 86.9217 3.4357C87.7536 2.80612 88.9453 2.89606 89.5075 3.54813C89.8223 3.93037 89.9347 4.40256 89.8447 4.96468C89.8223 5.09959 89.7548 5.30195 89.6649 5.54929L83.2566 19.2877C82.9868 19.8273 82.6495 20.2096 82.2223 20.5019C81.7726 20.8616 81.3004 20.9965 80.8057 20.9965Z" fill="white"/>
<path d="M101.02 20.9966C100.638 20.9966 100.278 20.8842 99.9858 20.6818C99.6935 20.4569 99.4911 20.1871 99.3787 19.8273L98.5467 16.8144H92.026L90.3621 19.8049C90.1373 20.1871 89.845 20.4794 89.5077 20.6818C88.6308 21.1989 87.5965 21.064 87.0568 20.4344C86.7645 20.0747 86.6296 19.6025 86.7196 19.0629C86.7645 18.8155 86.8545 18.5457 87.0119 18.2534L94.7467 4.53749C94.9941 4.11027 95.3089 3.773 95.6686 3.50318C96.0959 3.18839 96.5905 3.05348 97.1077 3.05348H97.3325C97.8722 3.05348 98.2994 3.21087 98.6367 3.50318C98.929 3.773 99.1538 4.11028 99.2663 4.51501L103.156 18.2309C103.246 18.5232 103.269 18.793 103.224 19.0404C103.156 19.5575 102.886 20.0297 102.504 20.412C102.077 20.8167 101.56 20.9966 101.02 20.9966ZM94.0947 13.1043H97.4899L96.3657 9.01203L94.0947 13.1043Z" fill="white"/>
<path d="M116.872 20.9965C116.243 20.9965 115.725 20.7042 115.433 20.187L109.699 11.1255L114.264 11.0806L118.851 17.8935C118.986 18.0734 119.188 18.4781 119.098 19.0628C119.031 19.5799 118.761 20.0521 118.379 20.4343C117.951 20.8166 117.434 20.9965 116.872 20.9965Z" fill="white"/>
<path d="M106.416 20.9965C105.877 20.9965 105.427 20.7941 105.112 20.4344C104.798 20.0746 104.663 19.58 104.753 19.0628L106.709 5.14453C106.776 4.62738 107.046 4.13271 107.451 3.77295C107.878 3.3907 108.373 3.18833 108.912 3.18833H114.219C116.49 3.18833 118.176 3.68301 119.233 4.67235C120.335 5.70667 120.784 7.05577 120.537 8.71967C120.335 10.1362 119.21 14.7232 113.05 14.7232H109.25L108.642 19.0853C108.575 19.6249 108.305 20.0971 107.855 20.4794C107.428 20.8166 106.934 20.9965 106.416 20.9965ZM109.789 10.9007H112.982C114.106 10.9007 115.006 10.6984 115.658 10.2936C116.22 9.95635 116.512 9.50665 116.602 8.87706C116.692 8.26997 116.557 7.84275 116.175 7.52796C115.86 7.28062 115.141 6.98831 113.409 6.98831H110.329L109.789 10.9007Z" fill="white"/>
<path d="M131.757 20.8841H122.628C122.088 20.8841 121.639 20.6817 121.324 20.322C121.009 19.9622 120.874 19.4675 120.964 18.9504L122.898 5.14453C122.965 4.62738 123.235 4.13271 123.64 3.77295C124.067 3.3907 124.584 3.18833 125.124 3.18833H134.253C134.77 3.18833 135.197 3.39069 135.512 3.75045C135.827 4.11022 135.939 4.5824 135.872 5.09956C135.804 5.61672 135.535 6.0889 135.107 6.44866C134.703 6.78594 134.208 6.98831 133.713 6.98831H126.541L126.091 10.1812H132.432C132.949 10.1812 133.376 10.3611 133.691 10.7208C134.006 11.0806 134.141 11.5528 134.051 12.0699C133.983 12.5871 133.713 13.0593 133.286 13.419C132.881 13.7563 132.387 13.9362 131.892 13.9362H125.551L125.101 17.1516H132.274C132.791 17.1516 133.219 17.3539 133.533 17.7137C133.848 18.0735 133.961 18.5456 133.893 19.0628C133.826 19.58 133.556 20.0521 133.129 20.4119C132.746 20.7042 132.274 20.8841 131.757 20.8841Z" fill="white"/>
</svg>
